<svg width="64" height="52" viewBox="0 0 64 52" fill="none" xmlns="http://www.w3.org/2000/svg">
<path fill-rule="evenodd" clip-rule="evenodd" d="M0.55896 50.422C2.9715 46.3207 5.04628 41.7369 4.66027 35.9468H2.00648V30.8805C1.84565 30.1567 2.15123 28.7092 4.66027 28.7092H13.8279C14.7125 28.5484 16.4817 28.7574 16.4817 30.8805V35.9468H13.8279C13.6671 38.4398 14.2139 44.8249 17.688 50.422C16.8034 52.2716 14.3104 52.8345 11.4154 40.2894H7.55532C5.94696 45.999 2.00648 53.7996 0.55896 50.422ZM7.07292 38.6006H11.1742V36.4293H7.07292V38.6006Z" fill="black"/>
<path fill-rule="evenodd" clip-rule="evenodd" d="M46.6384 50.4645C49.051 46.3632 51.1257 41.7794 50.7397 35.9893H48.0859V30.923C47.9251 30.1992 48.2307 28.7517 50.7397 28.7517H59.9074C60.792 28.5909 62.5612 28.8 62.5612 30.923V35.9893H59.9074C59.7465 38.4823 60.2934 44.8675 63.7674 50.4645C62.8828 52.3141 60.3899 52.8771 57.4948 40.3319H53.6348C52.0264 46.0416 48.0859 53.8421 46.6384 50.4645ZM53.3935 37.9193H57.4948V35.748H53.3935V37.9193Z" fill="black"/>
<path fill-rule="evenodd" clip-rule="evenodd" d="M22.818 51C21.818 51 20.818 49 22.318 49C24.818 49 26.9413 47.9572 30.8014 40.43V38.5L22.0307 25.3316H15.5168C13.0239 24.1254 9.53374 20.8926 15.5168 17.6115H28.062V11.3389H29.5095V8.68512C27.4187 8.44387 23.8642 7.4306 26.3732 5.30757L28.062 4.10131C28.2229 2.33211 28.9305 -0.144759 30.4746 4.10131V7.47886H31.9221V10.3739H33.1283V0H35.2996V2.89504C38.0338 2.01044 41.8617 1.25451 35.2996 5.30757V11.3389H37.2297V17.6115H49.0511C51.9461 18.8178 55.9992 22.0506 49.0511 25.3316H43.261L33.818 38.5V40.43C35.8284 44.2901 40.6254 49 43.318 49C44.318 49 43.818 51 42.818 51C40.818 51 40.318 51 32.318 42C25.318 51 24.818 51 22.818 51ZM29.992 13.0277V17.129H35.0583V13.0277H29.992ZM24.9257 25.3316L32.4045 37.1531L39.8834 25.3316H24.9257Z" fill="black"/>
</svg>
