<svg width="108" height="74" viewBox="0 0 108 74" fill="none" xmlns="http://www.w3.org/2000/svg">
<path fill-rule="evenodd" clip-rule="evenodd" d="M21.559 50.422C23.9715 46.3207 26.0463 41.7369 25.6603 35.9468H23.0065V30.8805C22.8456 30.1567 23.1512 28.7092 25.6603 28.7092H34.8279C35.7125 28.5484 37.4817 28.7574 37.4817 30.8805V35.9468H34.8279C34.6671 38.4398 35.2139 44.8249 38.688 50.422C37.8034 52.2716 35.3104 52.8345 32.4154 40.2894H28.5553C26.947 45.999 23.0065 53.7996 21.559 50.422ZM28.0729 38.6006H32.1742V36.4293H28.0729V38.6006Z" fill="black"/>
<path fill-rule="evenodd" clip-rule="evenodd" d="M67.6384 50.4645C70.051 46.3632 72.1257 41.7794 71.7397 35.9893H69.0859V30.923C68.9251 30.1992 69.2307 28.7517 71.7397 28.7517H80.9074C81.792 28.5909 83.5612 28.8 83.5612 30.923V35.9893H80.9074C80.7465 38.4823 81.2934 44.8675 84.7674 50.4645C83.8828 52.3141 81.3899 52.8771 78.4948 40.3319H74.6348C73.0264 46.0416 69.0859 53.8421 67.6384 50.4645ZM74.3935 37.9193H78.4948V35.748H74.3935V37.9193Z" fill="black"/>
<path fill-rule="evenodd" clip-rule="evenodd" d="M43.818 51C42.818 51 41.818 49 43.318 49C45.818 49 47.9413 47.9572 51.8014 40.43V38.5L43.0307 25.3316H36.5168C34.0239 24.1254 30.5337 20.8926 36.5168 17.6115H49.062V11.3389H50.5095V8.68512C48.4187 8.44387 44.8642 7.4306 47.3732 5.30757L49.062 4.10131C49.2229 2.33211 49.9305 -0.144759 51.4746 4.10131V7.47886H52.9221V10.3739H54.1283V0H56.2996V2.89504C59.0338 2.01044 62.8617 1.25451 56.2996 5.30757V11.3389H58.2297V17.6115H70.0511C72.9461 18.8178 76.9992 22.0506 70.0511 25.3316H64.261L54.818 38.5V40.43C56.8284 44.2901 61.6254 49 64.318 49C65.318 49 64.818 51 63.818 51C61.818 51 61.318 51 53.318 42C46.318 51 45.818 51 43.818 51ZM50.992 13.0277V17.129H56.0583V13.0277H50.992ZM45.9257 25.3316L53.4045 37.1531L60.8834 25.3316H45.9257Z" fill="black"/>
<path d="M6.17801 68.938V57.742C6.17801 57.49 6.78401 57.364 7.99601 57.364C9.22001 57.364 9.83201 57.49 9.83201 57.742V66.562H12.604C12.82 66.562 12.97 66.844 13.054 67.408C13.09 67.684 13.108 67.966 13.108 68.254C13.108 68.542 13.09 68.836 13.054 69.136C12.958 69.712 12.802 70 12.586 70H7.04201C6.77801 70 6.56801 69.892 6.41201 69.676C6.25601 69.46 6.17801 69.214 6.17801 68.938ZM20.8943 69.514C20.1383 69.958 19.1663 70.18 17.9783 70.18C16.7903 70.18 15.7883 69.778 14.9723 68.974C14.1563 68.158 13.7483 67.036 13.7483 65.608C13.7483 64.168 14.1383 63.01 14.9183 62.134C15.7103 61.258 16.7063 60.82 17.9063 60.82C19.1063 60.82 20.0303 61.126 20.6783 61.738C21.3383 62.35 21.6683 63.094 21.6683 63.97C21.6683 65.914 20.5523 66.886 18.3203 66.886H17.0783C17.0783 67.246 17.1743 67.498 17.3663 67.642C17.5703 67.774 17.8643 67.84 18.2483 67.84C19.0883 67.84 19.8863 67.648 20.6423 67.264C20.6543 67.252 20.7083 67.336 20.8043 67.516C21.0923 68.032 21.2363 68.47 21.2363 68.83C21.2363 69.178 21.1223 69.406 20.8943 69.514ZM18.6443 64.312C18.6443 63.808 18.3983 63.556 17.9063 63.556C17.6783 63.556 17.4803 63.628 17.3123 63.772C17.1563 63.904 17.0783 64.102 17.0783 64.366V64.924H18.0503C18.4463 64.924 18.6443 64.72 18.6443 64.312ZM23.9782 63.466C23.6422 62.866 23.4742 62.38 23.4742 62.008C23.4742 61.624 23.5762 61.378 23.7802 61.27C24.4642 60.97 25.4002 60.82 26.5882 60.82C27.7882 60.82 28.6342 61.102 29.1262 61.666C29.6182 62.218 29.8642 63.04 29.8642 64.132V66.976H30.4762C30.6802 66.976 30.8362 67.096 30.9442 67.336C31.0642 67.576 31.1242 67.906 31.1242 68.326C31.1242 68.746 31.0162 69.16 30.8002 69.568C30.5962 69.976 30.3142 70.18 29.9542 70.18C29.3062 70.18 28.7842 70.006 28.3882 69.658C28.2082 69.514 28.0702 69.34 27.9742 69.136C27.4222 69.832 26.5642 70.18 25.4002 70.18C24.5242 70.18 23.7862 69.868 23.1862 69.244C22.5862 68.62 22.2862 67.882 22.2862 67.03C22.2862 65.074 23.4562 64.096 25.7962 64.096H26.7862V63.916C26.7862 63.604 26.7322 63.406 26.6242 63.322C26.5282 63.226 26.2942 63.178 25.9222 63.178C25.4662 63.178 24.8182 63.274 23.9782 63.466ZM25.4182 66.778C25.4182 67.042 25.4902 67.246 25.6342 67.39C25.7782 67.522 25.9582 67.588 26.1742 67.588C26.4022 67.588 26.6062 67.498 26.7862 67.318V65.932H26.2822C25.7062 65.932 25.4182 66.214 25.4182 66.778ZM32.845 63.394H31.963C31.783 63.394 31.693 62.998 31.693 62.206C31.693 61.402 31.783 61 31.963 61H32.845V60.604C32.845 59.332 33.109 58.456 33.637 57.976C34.177 57.484 34.927 57.238 35.887 57.238C36.847 57.238 37.693 57.412 38.425 57.76C38.521 57.796 38.569 57.928 38.569 58.156C38.569 58.372 38.467 58.726 38.263 59.218C38.059 59.71 37.885 59.992 37.741 60.064C37.333 59.812 36.913 59.686 36.481 59.686C36.013 59.686 35.779 59.998 35.779 60.622V61H37.273C37.489 61 37.597 61.384 37.597 62.152C37.597 62.992 37.459 63.412 37.183 63.412H36.031V69.784C36.031 69.928 35.497 70 34.429 70C33.373 70 32.845 69.928 32.845 69.784V63.394ZM38.263 61.09C38.263 60.958 38.809 60.892 39.901 60.892C41.005 60.892 41.575 60.952 41.611 61.072L42.907 65.32L44.149 61.036C44.197 60.94 44.569 60.892 45.265 60.892C46.861 60.892 47.623 60.97 47.551 61.126L43.321 73.168C43.309 73.24 42.979 73.276 42.331 73.276C41.695 73.276 41.101 73.252 40.549 73.204C39.997 73.168 39.733 73.12 39.757 73.06L41.323 69.28L38.263 61.09ZM48.471 68.938V57.742C48.471 57.49 49.077 57.364 50.289 57.364C51.513 57.364 52.125 57.49 52.125 57.742V66.562H54.897C55.113 66.562 55.263 66.844 55.347 67.408C55.383 67.684 55.401 67.966 55.401 68.254C55.401 68.542 55.383 68.836 55.347 69.136C55.251 69.712 55.095 70 54.879 70H49.335C49.071 70 48.861 69.892 48.705 69.676C48.549 69.46 48.471 69.214 48.471 68.938ZM57.1572 68.938C56.4132 68.11 56.0412 66.964 56.0412 65.5C56.0412 64.036 56.4132 62.89 57.1572 62.062C57.9132 61.234 58.9272 60.82 60.1992 60.82C61.4712 60.82 62.4792 61.234 63.2232 62.062C63.9672 62.89 64.3392 64.036 64.3392 65.5C64.3392 66.964 63.9672 68.11 63.2232 68.938C62.4792 69.766 61.4712 70.18 60.1992 70.18C58.9272 70.18 57.9132 69.766 57.1572 68.938ZM60.1992 63.826C59.5272 63.826 59.1912 64.378 59.1912 65.482C59.1912 66.586 59.5272 67.138 60.1992 67.138C60.8832 67.138 61.2252 66.586 61.2252 65.482C61.2252 64.378 60.8832 63.826 60.1992 63.826ZM65.5218 61.108C65.5218 60.976 66.0378 60.91 67.0698 60.91C68.1018 60.91 68.6178 60.976 68.6178 61.108V66.364C68.6178 66.964 68.8098 67.264 69.1938 67.264C69.4818 67.264 69.8058 67.138 70.1658 66.886V61.108C70.1658 60.988 70.6758 60.928 71.6958 60.928C72.7158 60.928 73.2258 60.988 73.2258 61.108V67.012H73.6938C74.1018 67.012 74.3058 67.402 74.3058 68.182C74.3058 68.578 74.2218 68.98 74.0538 69.388C73.8138 69.916 73.4898 70.18 73.0818 70.18C72.2778 70.18 71.6838 69.85 71.2998 69.19L71.2818 69.208C70.5498 69.856 69.7638 70.18 68.9238 70.18C67.7598 70.18 66.9018 69.892 66.3498 69.316C65.7978 68.728 65.5218 67.762 65.5218 66.418V61.108ZM79.1648 69.892C79.1648 69.976 78.7328 70.018 77.8688 70.018C76.6688 69.982 76.0688 69.916 76.0688 69.82V63.988H75.6008C75.2888 63.988 75.0848 63.724 74.9888 63.196C74.9648 63.04 74.9528 62.884 74.9528 62.728C74.9528 62.356 75.0248 61.984 75.1688 61.612C75.3848 61.084 75.7208 60.82 76.1768 60.82C76.6328 60.82 77.0408 60.928 77.4008 61.144C77.7608 61.36 78.0008 61.576 78.1208 61.792C78.8768 61.144 79.7768 60.82 80.8208 60.82C81.8648 60.82 82.6208 61.102 83.0888 61.666C83.5568 62.23 83.7908 63.154 83.7908 64.438V69.838C83.7908 69.982 83.2748 70.054 82.2428 70.054C81.2228 70.054 80.7128 69.982 80.7128 69.838V64.636C80.7128 64.036 80.5028 63.736 80.0828 63.736C79.9628 63.736 79.7948 63.79 79.5788 63.898C79.3628 63.994 79.2248 64.066 79.1648 64.114V69.892ZM88.6288 70C87.4648 70 86.5648 69.628 85.9288 68.884C85.2928 68.128 84.9748 67.018 84.9748 65.554C84.9748 64.078 85.3888 62.926 86.2168 62.098C87.0568 61.258 88.1668 60.838 89.5468 60.838C90.9388 60.838 92.0848 61.144 92.9848 61.756V70.72C92.9848 71.608 92.6248 72.286 91.9048 72.754C91.1848 73.234 90.2608 73.474 89.1328 73.474C88.0048 73.474 86.9968 73.33 86.1088 73.042C85.9888 72.754 85.9288 72.496 85.9288 72.268C85.9288 71.5 86.0548 70.936 86.3068 70.576C87.1108 70.924 87.9688 71.098 88.8808 71.098C89.5408 71.098 89.8708 70.864 89.8708 70.396V69.856C89.3548 69.952 88.9408 70 88.6288 70ZM89.4568 63.772C88.6528 63.772 88.2508 64.378 88.2508 65.59C88.2508 66.346 88.4068 66.838 88.7188 67.066C88.9228 67.222 89.1268 67.3 89.3308 67.3C89.5348 67.3 89.7148 67.282 89.8708 67.246V63.826C89.7268 63.79 89.5888 63.772 89.4568 63.772ZM101.402 69.514C100.646 69.958 99.6741 70.18 98.4861 70.18C97.2981 70.18 96.2961 69.778 95.4801 68.974C94.6641 68.158 94.2561 67.036 94.2561 65.608C94.2561 64.168 94.6461 63.01 95.4261 62.134C96.2181 61.258 97.2141 60.82 98.4141 60.82C99.6141 60.82 100.538 61.126 101.186 61.738C101.846 62.35 102.176 63.094 102.176 63.97C102.176 65.914 101.06 66.886 98.8281 66.886H97.5861C97.5861 67.246 97.6821 67.498 97.8741 67.642C98.0781 67.774 98.3721 67.84 98.7561 67.84C99.5961 67.84 100.394 67.648 101.15 67.264C101.162 67.252 101.216 67.336 101.312 67.516C101.6 68.032 101.744 68.47 101.744 68.83C101.744 69.178 101.63 69.406 101.402 69.514ZM99.1521 64.312C99.1521 63.808 98.9061 63.556 98.4141 63.556C98.1861 63.556 97.9881 63.628 97.8201 63.772C97.6641 63.904 97.5861 64.102 97.5861 64.366V64.924H98.5581C98.9541 64.924 99.1521 64.72 99.1521 64.312Z" fill="black"/>
</svg>
